<svg xmlns="http://www.w3.org/2000/svg" width="55.382" height="37.138" viewBox="0 0 55.382 37.138">
  <path id="Zapp" d="M41.886,37.138c-.341,0-.559-.089-.648-.265a1.448,1.448,0,0,1-.132-.647V22.251a7.8,7.8,0,0,1-1.686.834,8.626,8.626,0,0,1-2.947.457,4.962,4.962,0,0,1-1.61,1.154,4.443,4.443,0,0,1-1.81.407,3.16,3.16,0,0,1-1.029-.141,1.525,1.525,0,0,1-.615-.374V35.644a1.317,1.317,0,0,1-.639,1.212,1.758,1.758,0,0,1-.59.224,3.151,3.151,0,0,1-.564.058c-.342,0-.559-.089-.647-.265a1.436,1.436,0,0,1-.133-.647V23.361a4.848,4.848,0,0,1-1.121.877,3.549,3.549,0,0,1-1.918.515,3.09,3.09,0,0,1-1.561-.382,2.893,2.893,0,0,1-1.046-1.012,4.765,4.765,0,0,1-1.237.987,3.385,3.385,0,0,1-1.685.407,3.716,3.716,0,0,1-1.751-.4,3.77,3.77,0,0,1-1.27-1.088,4.815,4.815,0,0,1-.772-1.626,7.625,7.625,0,0,1-.257-2.018A10.209,10.209,0,0,1,16.9,15.8a9.037,9.037,0,0,1,1.81-2.881,7.9,7.9,0,0,1,2.581-1.818,7.527,7.527,0,0,1,3.013-.63,1.649,1.649,0,0,1,1.129.382,1.332,1.332,0,0,1,.431,1.046,1.436,1.436,0,0,1-.091.606.351.351,0,0,1-.34.175,3.59,3.59,0,0,1-.482-.033,3.861,3.861,0,0,0-.515-.033,5.017,5.017,0,0,0-1.959.423,5.263,5.263,0,0,0-1.8,1.3,6.853,6.853,0,0,0-1.32,2.209,8.887,8.887,0,0,0-.515,3.179,3.548,3.548,0,0,0,.515,2.067,1.646,1.646,0,0,0,1.411.722,1.5,1.5,0,0,0,1.162-.523,4.122,4.122,0,0,0,.747-1.237V15.506a2.958,2.958,0,0,0-.024-.415c-.019-.125-.035-.212-.05-.283s-.03-.147-.041-.208a.991.991,0,0,1-.016-.174A.481.481,0,0,1,22.8,14a1.178,1.178,0,0,1,.623-.158,1.967,1.967,0,0,1,1.345.44,1.366,1.366,0,0,1,.5,1.054v5.611a2.374,2.374,0,0,0,.067.556,1.814,1.814,0,0,0,.2.5,1.08,1.08,0,0,0,.357.365.962.962,0,0,0,.523.141,1.232,1.232,0,0,0,.888-.365,3.4,3.4,0,0,0,.647-.913,6.461,6.461,0,0,0,.448-1.187c.053-.194.133-.408.212-.616a5.242,5.242,0,0,0,.229-.7v4.628l0-4.636v-6.24a2.331,2.331,0,0,0-.059-.581,2.162,2.162,0,0,0-.116-.34,1.092,1.092,0,0,0-.116-.2.271.271,0,0,1-.058-.174.183.183,0,0,1,.1-.149.985.985,0,0,1,.265-.116,2.221,2.221,0,0,1,.357-.075,2.808,2.808,0,0,1,.374-.025,1.885,1.885,0,0,1,1.3.44,1.458,1.458,0,0,1,.523,1.021,4.947,4.947,0,0,1,1.279-1.3,3.155,3.155,0,0,1,1.826-.514,3.2,3.2,0,0,1,1.734.464,3.827,3.827,0,0,1,1.228,1.27,6.215,6.215,0,0,1,.731,1.9,11.053,11.053,0,0,1,.24,2.358A14.625,14.625,0,0,1,38.2,19.2a11.806,11.806,0,0,1-.631,2.233,5.562,5.562,0,0,0,1.394-.232,2.709,2.709,0,0,0,.922-.507,3.164,3.164,0,0,0,.647-.788c.179-.3.372-.661.573-1.063V12.485a2.331,2.331,0,0,0-.059-.581,2.161,2.161,0,0,0-.116-.34,1.092,1.092,0,0,0-.116-.2.275.275,0,0,1-.058-.174.183.183,0,0,1,.1-.149.984.984,0,0,1,.265-.116,2.21,2.21,0,0,1,.357-.075,2.808,2.808,0,0,1,.374-.025,1.885,1.885,0,0,1,1.3.44,1.462,1.462,0,0,1,.523,1.021,4.94,4.94,0,0,1,1.278-1.3,3.159,3.159,0,0,1,1.826-.514,3.205,3.205,0,0,1,1.735.464,3.827,3.827,0,0,1,1.229,1.27,6.241,6.241,0,0,1,.731,1.9,11.053,11.053,0,0,1,.24,2.358,14.55,14.55,0,0,1-.249,2.731,11.733,11.733,0,0,1-.631,2.233,5.564,5.564,0,0,0,1.4-.232,2.709,2.709,0,0,0,.922-.507,3.18,3.18,0,0,0,.647-.788c.181-.306.373-.664.572-1.063a4.858,4.858,0,0,1,.391-.7.471.471,0,0,1,.39-.216.867.867,0,0,1,.44.132,1.663,1.663,0,0,1,.4.332,1.91,1.91,0,0,1,.283.424.952.952,0,0,1,.107.407,2.9,2.9,0,0,1-.4,1.328,4.692,4.692,0,0,1-1.22,1.411,7.224,7.224,0,0,1-2.075,1.121,8.626,8.626,0,0,1-2.947.457,4.974,4.974,0,0,1-1.61,1.154,4.449,4.449,0,0,1-1.81.407,3.171,3.171,0,0,1-1.03-.141,1.522,1.522,0,0,1-.614-.374V35.644a1.407,1.407,0,0,1-.183.755,1.39,1.39,0,0,1-.456.457,1.758,1.758,0,0,1-.589.224A3.167,3.167,0,0,1,41.886,37.138ZM45.92,12.75a1.311,1.311,0,0,0-.706.215,2.657,2.657,0,0,0-.639.59,3.842,3.842,0,0,0-.523.905,7.553,7.553,0,0,0-.374,1.145V22.96a2.289,2.289,0,0,1,1.2-.814,8.59,8.59,0,0,1,2.009-.382,4.989,4.989,0,0,0,.523-1.071,10.913,10.913,0,0,0,.374-1.286,12.626,12.626,0,0,0,.224-1.3,9.993,9.993,0,0,0-.1-3.088,4.47,4.47,0,0,0-.472-1.32,1.975,1.975,0,0,0-.689-.73A1.633,1.633,0,0,0,45.92,12.75Zm-12.269,0a1.315,1.315,0,0,0-.706.215,2.677,2.677,0,0,0-.639.59,3.842,3.842,0,0,0-.523.905,7.553,7.553,0,0,0-.374,1.145V22.96a2.294,2.294,0,0,1,1.2-.814,8.59,8.59,0,0,1,2.009-.382,4.952,4.952,0,0,0,.523-1.071,10.741,10.741,0,0,0,.373-1.286,12.626,12.626,0,0,0,.224-1.3A9.518,9.518,0,0,0,35.809,17a9.638,9.638,0,0,0-.174-1.975,4.467,4.467,0,0,0-.473-1.32,1.966,1.966,0,0,0-.689-.73A1.628,1.628,0,0,0,33.651,12.75Zm7.455,6.182h0v3.318l.008-.005.015-.01C41.108,21.877,41.106,19.806,41.106,18.932ZM8.234,36.291a3.9,3.9,0,0,1-1.569-.307,3.541,3.541,0,0,1-1.2-.847A3.725,3.725,0,0,1,4.7,33.859a4.688,4.688,0,0,1-.266-1.586,4.882,4.882,0,0,1,.49-2.216,6.059,6.059,0,0,1,1.3-1.718,8.335,8.335,0,0,1,1.851-1.287,14.413,14.413,0,0,1,2.174-.9,4.7,4.7,0,0,0-1.461-2.325,3.91,3.91,0,0,0-2.39-.863.919.919,0,0,1-.5-.175,1.265,1.265,0,0,1-.356-.407,2.174,2.174,0,0,1-.216-.539,2.255,2.255,0,0,1-.075-.556,1.251,1.251,0,0,1,.133-.6.468.468,0,0,1,.448-.249h.116a.42.42,0,0,1,.149.033H6.1a2.32,2.32,0,0,0,.5-.184,5.724,5.724,0,0,0,1.1-.68A9.558,9.558,0,0,0,9.065,18.3a9.737,9.737,0,0,0,1.353-2.075,14.031,14.031,0,0,0,1.038-2.98,17.52,17.52,0,0,0,.415-4.026,11.012,11.012,0,0,0-.249-2.5,7.206,7.206,0,0,0-.647-1.784,4.317,4.317,0,0,0-.9-1.179,4.509,4.509,0,0,0-1-.689A3.756,3.756,0,0,0,8.11,2.74a4.361,4.361,0,0,0-.755-.084,3.791,3.791,0,0,0-1.719.424A4.479,4.479,0,0,0,4.151,4.316,6.4,6.4,0,0,0,3.113,6.325a8.918,8.918,0,0,0-.391,2.756A8.805,8.805,0,0,0,3.1,11.845,6.656,6.656,0,0,0,4.018,13.7,3.755,3.755,0,0,0,5.13,14.742a2.079,2.079,0,0,0,.963.332.9.9,0,0,0,.315-.049.685.685,0,0,1,.232-.05.133.133,0,0,1,.125.092,1.062,1.062,0,0,1,.041.373,2.4,2.4,0,0,1-.448,1.486,1.484,1.484,0,0,1-1.246.59,2.382,2.382,0,0,1-.93-.233,4.764,4.764,0,0,1-1.1-.7,8.074,8.074,0,0,1-1.12-1.154,8.18,8.18,0,0,1-1-1.611,10.112,10.112,0,0,1-.706-2.066A11.141,11.141,0,0,1,0,9.248a11.433,11.433,0,0,1,.672-4.1A8.857,8.857,0,0,1,2.416,2.258a7,7,0,0,1,2.39-1.7A6.727,6.727,0,0,1,7.421,0,6.412,6.412,0,0,1,10.3.656a6.606,6.606,0,0,1,2.274,1.876,9.092,9.092,0,0,1,1.486,2.955A13.425,13.425,0,0,1,14.593,9.4a17.867,17.867,0,0,1-.5,4.432,16.183,16.183,0,0,1-1.246,3.37,12.039,12.039,0,0,1-1.635,2.449,15.9,15.9,0,0,1-1.685,1.669,5.239,5.239,0,0,1,.963.572,5.137,5.137,0,0,1,.9.872,6.832,6.832,0,0,1,.78,1.2,8.376,8.376,0,0,1,.607,1.569,10.241,10.241,0,0,1,1.2-.183c.357-.031.712-.058,1.087-.083l.089,0a.666.666,0,0,1,.683.376,1.442,1.442,0,0,1,.05.922,2.388,2.388,0,0,1-.473.946,1.071,1.071,0,0,1-.8.448,10.581,10.581,0,0,0-1.461.1,2.191,2.191,0,0,1,.033.382v.4a15.04,15.04,0,0,1-.233,2.615,8.112,8.112,0,0,1-.8,2.4,5.028,5.028,0,0,1-1.527,1.759A4.049,4.049,0,0,1,8.234,36.291Zm2.374-7.753h0a6.065,6.065,0,0,0-2.623,1.444,3.073,3.073,0,0,0-.913,2.225,1.5,1.5,0,0,0,.357,1.111,1.2,1.2,0,0,0,.871.349,1.387,1.387,0,0,0,1.03-.448,3.678,3.678,0,0,0,.722-1.146,6.752,6.752,0,0,0,.424-1.561,11.32,11.32,0,0,0,.132-1.71v-.266Z" fill="#f51e38"/>
</svg>
